0
SECTION
2
HEADER
9
$INSUNITS
70
4
9
$ACADVER
1
AC1014
9
$HANDSEED
5
FFFF
0
ENDSEC
0
SECTION
2
TABLES
0
TABLE
2
VPORT
5
8
100
AcDbSymbolTable
0
ENDTAB
0
TABLE
2
LTYPE
5
5
100
AcDbSymbolTable
0
LTYPE
5
14
100
AcDbSymbolTableRecord
100
AcDbLinetypeTableRecord
2
BYBLOCK
70
0
0
LTYPE
5
15
100
AcDbSymbolTableRecord
100
AcDbLinetypeTableRecord
2
BYLAYER
70
0
0
ENDTAB
0
TABLE
2
LAYER
5
2
100
AcDbSymbolTable
70
2
0
LAYER
5
50
100
AcDbSymbolTableRecord
100
AcDbLayerTableRecord
2
0
70
0
6
CONTINUOUS
0
ENDTAB
0
TABLE
2
STYLE
5
3
100
AcDbSymbolTable
70
1
0
STYLE
5
11
100
AcDbSymbolTableRecord
100
AcDbTextStyleTableRecord
2
STANDARD
70
0
0
ENDTAB
0
TABLE
2
VIEW
5
6
100
AcDbSymbolTable
70
0
0
ENDTAB
0
TABLE
2
UCS
5
7
100
AcDbSymbolTable
70
0
0
ENDTAB
0
TABLE
2
APPID
5
9
100
AcDbSymbolTable
70
2
0
APPID
5
12
100
AcDbSymbolTableRecord
100
AcDbRegAppTableRecord
2
ACAD
70
0
0
ENDTAB
0
TABLE
2
DIMSTYLE
5
A
100
AcDbSymbolTable
70
1
0
ENDTAB
0
TABLE
2
BLOCK_RECORD
5
1
100
AcDbSymbolTable
70
1
0
BLOCK_RECORD
5
1F
100
AcDbSymbolTableRecord
100
AcDbBlockTableRecord
2
*MODEL_SPACE
0
BLOCK_RECORD
5
1B
100
AcDbSymbolTableRecord
100
AcDbBlockTableRecord
2
*PAPER_SPACE
0
ENDTAB
0
ENDSEC
0
SECTION
2
BLOCKS
0
BLOCK
5
20
100
AcDbEntity
100
AcDbBlockBegin
2
*MODEL_SPACE
0
ENDBLK
5
21
100
AcDbEntity
100
AcDbBlockEnd
0
BLOCK
5
1C
100
AcDbEntity
100
AcDbBlockBegin
2
*PAPER_SPACE
0
ENDBLK
5
1D
100
AcDbEntity
100
AcDbBlockEnd
0
ENDSEC
0
SECTION
2
ENTITIES
0
LWPOLYLINE
5
100
100
AcDbEntity
8
0
100
AcDbPolyline
90
164
70
1
43
0.0
10
-6.0000000000000009
20
-319
10
-21.5
20
-319
10
-21.500000000000057
20
-325
10
-46.500000000000057
20
-325
10
-46.5
20
-319
10
-71.5
20
-319
10
-71.499999999999986
20
-325
10
-96.499999999999986
20
-325
10
-96.499999999999986
20
-319
10
-121.49999999999999
20
-319
10
-121.49999999999999
20
-325
10
-146.5
20
-325
10
-146.5
20
-319
10
-171.5
20
-319
10
-171.5
20
-325
10
-196.5
20
-325
10
-196.5
20
-319
10
-221.5
20
-319
10
-221.5
20
-325
10
-246.5
20
-325
10
-246.5
20
-319
10
-271.5
20
-319
10
-271.5
20
-325
10
-296.5
20
-325
10
-296.5
20
-319
10
-321.50000000000006
20
-319
10
-321.50000000000006
20
-325
10
-346.50000000000006
20
-325
10
-346.50000000000006
20
-319
10
-371.50000000000006
20
-319
10
-371.50000000000006
20
-325
10
-396.50000000000006
20
-325
10
-396.50000000000006
20
-319
10
-421.50000000000006
20
-319
10
-421.50000000000006
20
-325
10
-446.50000000000006
20
-325
10
-446.50000000000006
20
-319
10
-471.50000000000006
20
-319
10
-471.50000000000006
20
-325
10
-496.50000000000006
20
-325
10
-496.50000000000006
20
-319
10
-521.5
20
-319
10
-521.5
20
-325
10
-546.5
20
-325
10
-546.5
20
-319
10
-571.5
20
-319
10
-571.5
20
-325
10
-596.5
20
-325
10
-596.5
20
-319
10
-621.5
20
-319
10
-621.5
20
-325
10
-646.5
20
-325
10
-646.5
20
-319
10
-671.5
20
-319
10
-671.5
20
-325
10
-696.5
20
-325
10
-696.5
20
-319
10
-712
20
-319
10
-712
20
-300
10
-718
20
-300
10
-718
20
-275
10
-712
20
-275
10
-712
20
-250
10
-718
20
-250
10
-718
20
-225
10
-712
20
-225
10
-712
20
-200
10
-718
20
-200
10
-718
20
-175
10
-712
20
-175
10
-712
20
-150
10
-718
20
-150
10
-718
20
-125
10
-712
20
-125
10
-712
20
-100
10
-718
20
-100
10
-718
20
-75
10
-712
20
-75
10
-712
20
-50
10
-718
20
-50
10
-718
20
-25
10
-712
20
-25
10
-712
20
-6.0000000000000009
10
-696.5
20
-6.0000000000000009
10
-696.5
20
0
10
-671.5
20
0
10
-671.5
20
-6.0000000000000009
10
-646.5
20
-6.0000000000000009
10
-646.5
20
0
10
-621.5
20
0
10
-621.5
20
-6.0000000000000009
10
-596.5
20
-6.0000000000000009
10
-596.5
20
0
10
-571.5
20
0
10
-571.5
20
-6.0000000000000009
10
-546.5
20
-6.0000000000000009
10
-546.5
20
0
10
-521.5
20
0
10
-521.5
20
-6.0000000000000009
10
-496.50000000000006
20
-6.0000000000000009
10
-496.50000000000006
20
0
10
-471.50000000000006
20
0
10
-471.50000000000006
20
-6.0000000000000009
10
-446.50000000000006
20
-6.0000000000000009
10
-446.50000000000006
20
0
10
-421.50000000000006
20
0
10
-421.50000000000006
20
-6.0000000000000009
10
-396.50000000000006
20
-6.0000000000000009
10
-396.50000000000006
20
0
10
-371.50000000000006
20
0
10
-371.50000000000006
20
-6.0000000000000009
10
-346.50000000000006
20
-6.0000000000000009
10
-346.50000000000006
20
0
10
-321.50000000000006
20
0
10
-321.50000000000006
20
-6.0000000000000009
10
-296.5
20
-6.0000000000000009
10
-296.5
20
0
10
-271.5
20
0
10
-271.5
20
-6.0000000000000009
10
-246.5
20
-6.0000000000000009
10
-246.5
20
0
10
-221.5
20
0
10
-221.5
20
-6.0000000000000009
10
-196.5
20
-6.0000000000000009
10
-196.5
20
0
10
-171.5
20
0
10
-171.5
20
-6.0000000000000009
10
-146.5
20
-6.0000000000000009
10
-146.5
20
0
10
-121.49999999999999
20
0
10
-121.49999999999999
20
-6.0000000000000009
10
-96.499999999999986
20
-6.0000000000000009
10
-96.499999999999986
20
0
10
-71.5
20
0
10
-71.499999999999986
20
-6.0000000000000009
10
-46.500000000000057
20
-6.0000000000000009
10
-46.5
20
0
10
-21.5
20
0
10
-21.500000000000057
20
-6.0000000000000009
10
-6.0000000000000009
20
-6.0000000000000009
10
-6.0000000000000009
20
-25
10
0
20
-25
10
0
20
-50
10
-6.0000000000000009
20
-50
10
-6.0000000000000009
20
-75
10
0
20
-75
10
0
20
-100
10
-6.0000000000000009
20
-100
10
-6.0000000000000009
20
-125
10
0
20
-125
10
0
20
-150
10
-6.0000000000000009
20
-150
10
-6.0000000000000009
20
-175
10
0
20
-175
10
0
20
-200
10
-6.0000000000000009
20
-200
10
-6.0000000000000009
20
-225
10
0
20
-225
10
0
20
-250
10
-6.0000000000000009
20
-250
10
-6.0000000000000009
20
-275
10
0
20
-275
10
0
20
-300
10
-6.0000000000000009
20
-300
0
SPLINE
5
101
100
AcDbEntity
8
0
100
AcDbSpline
70
0
71
3
72
8
73
4
74
0
42
0.000000001
43
0.0000000001
44
0.0000000001
40
-1
40
-1
40
-1
40
-1
40
0
40
0
40
0
40
0
10
-636.54284699999994
20
-144.99850000000004
30
0
10
-636.53829699999994
20
-145.04577700000002
30
0
10
-636.53496200000006
20
-145.09316200000001
30
0
10
-636.53284699999995
20
-145.14061000000001
30
0
0
SPLINE
5
102
100
AcDbEntity
8
0
100
AcDbSpline
70
0
71
3
72
8
73
4
74
0
42
0.000000001
43
0.0000000001
44
0.0000000001
40
-1
40
-1
40
-1
40
-1
40
0
40
0
40
0
40
0
10
-636.53284699999995
20
-145.14061000000001
30
0
10
-636.53304900000001
20
-146.67175900000001
30
0
10
-637.77439600000002
20
-147.912869
30
0
10
-639.30554699999993
20
-147.91278
30
0
0
SPLINE
5
103
100
AcDbEntity
8
0
100
AcDbSpline
70
0
71
3
72
8
73
4
74
0
42
0.000000001
43
0.0000000001
44
0.0000000001
40
-1
40
-1
40
-1
40
-1
40
0
40
0
40
0
40
0
10
-639.30554699999993
20
-147.91278
30
0
10
-640.83650200000011
20
-147.91259300000002
30
0
10
-642.0775450000001
20
-146.67156399999999
30
0
10
-642.07774700000004
20
-145.14061000000001
30
0
0
SPLINE
5
104
100
AcDbEntity
8
0
100
AcDbSpline
70
0
71
3
72
8
73
4
74
0
42
0.000000001
43
0.0000000001
44
0.0000000001
40
-1
40
-1
40
-1
40
-1
40
0
40
0
40
0
40
0
10
-642.07774700000004
20
-145.14061000000001
30
0
10
-642.07681500000012
20
-145.07395099999999
30
0
10
-642.07347900000002
20
-145.00734800000001
30
0
10
-642.06774699999994
20
-144.94093000000001
30
0
0
SPLINE
5
105
100
AcDbEntity
8
0
100
AcDbSpline
70
0
71
3
72
8
73
4
74
0
42
0.000000001
43
0.0000000001
44
0.0000000001
40
-1
40
-1
40
-1
40
-1
40
0
40
0
40
0
40
0
10
-642.06774699999994
20
-144.94093000000001
30
0
10
-665.22909900000002
20
-143.38204299999998
30
0
10
-683.22716000000003
20
-124.15308300000001
30
0
10
-683.25264700000002
20
-100.93937
30
0
0
SPLINE
5
106
100
AcDbEntity
8
0
100
AcDbSpline
70
0
71
3
72
8
73
4
74
0
42
0.000000001
43
0.0000000001
44
0.0000000001
40
-1
40
-1
40
-1
40
-1
40
0
40
0
40
0
40
0
10
-683.25264700000002
20
-100.93937
30
0
10
-683.24985200000003
20
-77.709644999999995
30
0
10
-665.24660199999994
20
-58.455576000000001
30
0
10
-642.06934700000011
20
-56.894759999999998
30
0
0
SPLINE
5
107
100
AcDbEntity
8
0
100
AcDbSpline
70
0
71
3
72
8
73
4
74
0
42
0.000000001
43
0.0000000001
44
0.0000000001
40
-1
40
-1
40
-1
40
-1
40
0
40
0
40
0
40
0
10
-642.06934700000011
20
-56.894759999999998
30
0
10
-641.97833600000013
20
-55.434596999999997
30
0
10
-640.76844400000016
20
-54.296424999999999
30
0
10
-639.30544699999996
20
-54.294700000000006
30
0
0
SPLINE
5
108
100
AcDbEntity
8
0
100
AcDbSpline
70
0
71
3
72
8
73
4
74
0
42
0.000000001
43
0.0000000001
44
0.0000000001
40
-1
40
-1
40
-1
40
-1
40
0
40
0
40
0
40
0
10
-639.30544699999996
20
-54.294700000000006
30
0
10
-637.83253400000012
20
-54.295191000000003
30
0
10
-636.61709099999996
20
-55.447292000000004
30
0
10
-636.53784699999994
20
-56.91807
30
0
0
SPLINE
5
109
100
AcDbEntity
8
0
100
AcDbSpline
70
0
71
3
72
8
73
4
74
0
42
0.000000001
43
0.0000000001
44
0.0000000001
40
-1
40
-1
40
-1
40
-1
40
0
40
0
40
0
40
0
10
-636.53784699999994
20
-56.91807
30
0
10
-613.21103200000016
20
-58.275390000000009
30
0
10
-594.98124299999995
20
-77.573143000000016
30
0
10
-594.95274699999993
20
-100.93937
30
0
0
LINE
5
110
100
AcDbEntity
8
0
100
AcDbLine
10
-594.95274699999993
20
-100.93937
30
0
11
-594.95824700000003
21
-100.93937
31
0
0
SPLINE
5
111
100
AcDbEntity
8
0
100
AcDbSpline
70
0
71
3
72
8
73
4
74
0
42
0.000000001
43
0.0000000001
44
0.0000000001
40
-1
40
-1
40
-1
40
-1
40
0
40
0
40
0
40
0
10
-594.95824700000003
20
-100.93937
30
0
10
-594.96670999999992
20
-124.320018
30
0
10
-613.20166700000004
20
-143.640063
30
0
10
-636.54284699999994
20
-144.99850000000004
30
0
0
SPLINE
5
112
100
AcDbEntity
8
0
100
AcDbSpline
70
0
71
3
72
8
73
4
74
0
42
0.000000001
43
0.0000000001
44
0.0000000001
40
-1
40
-1
40
-1
40
-1
40
0
40
0
40
0
40
0
10
-123.25214700000001
20
-100.93937
30
0
10
-123.249352
20
-77.709644999999995
30
0
10
-105.24610200000001
20
-58.455576000000001
30
0
10
-82.068847000000005
20
-56.894759999999998
30
0
0
SPLINE
5
113
100
AcDbEntity
8
0
100
AcDbSpline
70
0
71
3
72
8
73
4
74
0
42
0.000000001
43
0.0000000001
44
0.0000000001
40
-1
40
-1
40
-1
40
-1
40
0
40
0
40
0
40
0
10
-82.068847000000005
20
-56.894759999999998
30
0
10
-81.977831000000009
20
-55.434601000000008
30
0
10
-80.767939999999996
20
-54.296435000000002
30
0
10
-79.304946999999999
20
-54.294709999999995
30
0
0
SPLINE
5
114
100
AcDbEntity
8
0
100
AcDbSpline
70
0
71
3
72
8
73
4
74
0
42
0.000000001
43
0.0000000001
44
0.0000000001
40
-1
40
-1
40
-1
40
-1
40
0
40
0
40
0
40
0
10
-79.304946999999999
20
-54.294709999999995
30
0
10
-77.83206899999999
20
-54.295254000000014
30
0
10
-76.616683999999992
20
-55.447347000000001
30
0
10
-76.537447000000014
20
-56.918089999999999
30
0
0
SPLINE
5
115
100
AcDbEntity
8
0
100
AcDbSpline
70
0
71
3
72
8
73
4
74
0
42
0.000000001
43
0.0000000001
44
0.0000000001
40
-1
40
-1
40
-1
40
-1
40
0
40
0
40
0
40
0
10
-76.537447000000014
20
-56.918089999999999
30
0
10
-53.210607999999993
20
-58.275368000000007
30
0
10
-34.980776000000006
20
-77.573121999999998
30
0
10
-34.952266999999999
20
-100.93937
30
0
0
LINE
5
116
100
AcDbEntity
8
0
100
AcDbLine
10
-34.952266999999999
20
-100.93937
30
0
11
-34.947777000000002
21
-100.93937
31
0
0
SPLINE
5
117
100
AcDbEntity
8
0
100
AcDbSpline
70
0
71
3
72
8
73
4
74
0
42
0.000000001
43
0.0000000001
44
0.0000000001
40
-1
40
-1
40
-1
40
-1
40
0
40
0
40
0
40
0
10
-34.947777000000002
20
-100.93937
30
0
10
-34.956242000000003
20
-124.32004300000001
30
0
10
-53.191240000000008
20
-143.64009899999999
30
0
10
-76.532446999999991
20
-144.99850000000004
30
0
0
SPLINE
5
118
100
AcDbEntity
8
0
100
AcDbSpline
70
0
71
3
72
8
73
4
74
0
42
0.000000001
43
0.0000000001
44
0.0000000001
40
-1
40
-1
40
-1
40
-1
40
0
40
0
40
0
40
0
10
-76.532446999999991
20
-144.99850000000004
30
0
10
-76.531233000000014
20
-145.04585900000001
30
0
10
-76.531233000000014
20
-145.09324099999998
30
0
10
-76.532446999999991
20
-145.14060000000001
30
0
0
SPLINE
5
119
100
AcDbEntity
8
0
100
AcDbSpline
70
0
71
3
72
8
73
4
74
0
42
0.000000001
43
0.0000000001
44
0.0000000001
40
-1
40
-1
40
-1
40
-1
40
0
40
0
40
0
40
0
10
-76.532446999999991
20
-145.14060000000001
30
0
10
-76.53263800000002
20
-146.67175700000001
30
0
10
-77.773988000000003
20
-147.912879
30
0
10
-79.305147000000005
20
-147.91279
30
0
0
SPLINE
5
120
100
AcDbEntity
8
0
100
AcDbSpline
70
0
71
3
72
8
73
4
74
0
42
0.000000001
43
0.0000000001
44
0.0000000001
40
-1
40
-1
40
-1
40
-1
40
0
40
0
40
0
40
0
10
-79.305147000000005
20
-147.91279
30
0
10
-80.836109999999991
20
-147.91260299999999
30
0
10
-82.077156000000002
20
-146.67156200000002
30
0
10
-82.077347000000017
20
-145.14060000000001
30
0
0
SPLINE
5
121
100
AcDbEntity
8
0
100
AcDbSpline
70
0
71
3
72
8
73
4
74
0
42
0.000000001
43
0.0000000001
44
0.0000000001
40
-1
40
-1
40
-1
40
-1
40
0
40
0
40
0
40
0
10
-82.077347000000017
20
-145.14060000000001
30
0
10
-82.076414999999997
20
-145.073948
30
0
10
-82.073079000000021
20
-145.007351
30
0
10
-82.067346999999998
20
-144.94093999999998
30
0
0
SPLINE
5
122
100
AcDbEntity
8
0
100
AcDbSpline
70
0
71
3
72
8
73
4
74
0
42
0.000000001
43
0.0000000001
44
0.0000000001
40
-1
40
-1
40
-1
40
-1
40
0
40
0
40
0
40
0
10
-82.067346999999998
20
-144.94093999999998
30
0
10
-105.22866299999998
20
-143.382003
30
0
10
-123.22666900000002
20
-124.153051
30
0
10
-123.25214700000001
20
-100.93937
30
0
0
LINE
5
123
100
AcDbEntity
8
0
100
AcDbLine
10
-454.95234699999997
20
-100.93934000000002
30
0
11
-454.94774699999999
21
-100.93934000000002
31
0
0
SPLINE
5
124
100
AcDbEntity
8
0
100
AcDbSpline
70
0
71
3
72
8
73
4
74
0
42
0.000000001
43
0.0000000001
44
0.0000000001
40
-1
40
-1
40
-1
40
-1
40
0
40
0
40
0
40
0
10
-454.94774699999999
20
-100.93934000000002
30
0
10
-454.95621300000005
20
-124.32002400000002
30
0
10
-473.19122800000002
20
-143.640084
30
0
10
-496.53244700000005
20
-144.99847
30
0
0
SPLINE
5
125
100
AcDbEntity
8
0
100
AcDbSpline
70
0
71
3
72
8
73
4
74
0
42
0.000000001
43
0.0000000001
44
0.0000000001
40
-1
40
-1
40
-1
40
-1
40
0
40
0
40
0
40
0
10
-496.53244700000005
20
-144.99847
30
0
10
-496.5312320000001
20
-145.04583200000002
30
0
10
-496.5312320000001
20
-145.09321800000004
30
0
10
-496.53244700000005
20
-145.14058
30
0
0
SPLINE
5
126
100
AcDbEntity
8
0
100
AcDbSpline
70
0
71
3
72
8
73
4
74
0
42
0.000000001
43
0.0000000001
44
0.0000000001
40
-1
40
-1
40
-1
40
-1
40
0
40
0
40
0
40
0
10
-496.53244700000005
20
-145.14058
30
0
10
-496.53263200000004
20
-146.671741
30
0
10
-497.77398400000004
20
-147.912869
30
0
10
-499.30514700000003
20
-147.91278
30
0
0
SPLINE
5
127
100
AcDbEntity
8
0
100
AcDbSpline
70
0
71
3
72
8
73
4
74
0
42
0.000000001
43
0.0000000001
44
0.0000000001
40
-1
40
-1
40
-1
40
-1
40
0
40
0
40
0
40
0
10
-499.30514700000003
20
-147.91278
30
0
10
-500.83611399999995
20
-147.91259300000002
30
0
10
-502.07716100000005
20
-146.67154600000001
30
0
10
-502.07734700000003
20
-145.14058
30
0
0
SPLINE
5
128
100
AcDbEntity
8
0
100
AcDbSpline
70
0
71
3
72
8
73
4
74
0
42
0.000000001
43
0.0000000001
44
0.0000000001
40
-1
40
-1
40
-1
40
-1
40
0
40
0
40
0
40
0
10
-502.07734700000003
20
-145.14058
30
0
10
-502.07641500000011
20
-145.07392099999998
30
0
10
-502.07307900000001
20
-145.007318
30
0
10
-502.06734699999998
20
-144.9409
30
0
0
SPLINE
5
129
100
AcDbEntity
8
0
100
AcDbSpline
70
0
71
3
72
8
73
4
74
0
42
0.000000001
43
0.0000000001
44
0.0000000001
40
-1
40
-1
40
-1
40
-1
40
0
40
0
40
0
40
0
10
-502.06734699999998
20
-144.9409
30
0
10
-525.22865899999999
20
-143.38196299999998
30
0
10
-543.22666399999991
20
-124.15301700000001
30
0
10
-543.25214699999992
20
-100.93934000000002
30
0
0
SPLINE
5
130
100
AcDbEntity
8
0
100
AcDbSpline
70
0
71
3
72
8
73
4
74
0
42
0.000000001
43
0.0000000001
44
0.0000000001
40
-1
40
-1
40
-1
40
-1
40
0
40
0
40
0
40
0
10
-543.25214699999992
20
-100.93934000000002
30
0
10
-543.24935200000004
20
-77.709614999999999
30
0
10
-525.24610199999995
20
-58.455545999999998
30
0
10
-502.06884699999995
20
-56.894730000000003
30
0
0
SPLINE
5
131
100
AcDbEntity
8
0
100
AcDbSpline
70
0
71
3
72
8
73
4
74
0
42
0.000000001
43
0.0000000001
44
0.0000000001
40
-1
40
-1
40
-1
40
-1
40
0
40
0
40
0
40
0
10
-502.06884699999995
20
-56.894730000000003
30
0
10
-501.97782100000006
20
-55.434579000000006
30
0
10
-500.76793300000008
20
-54.296424000000002
30
0
10
-499.30494699999997
20
-54.294700000000006
30
0
0
SPLINE
5
132
100
AcDbEntity
8
0
100
AcDbSpline
70
0
71
3
72
8
73
4
74
0
42
0.000000001
43
0.0000000001
44
0.0000000001
40
-1
40
-1
40
-1
40
-1
40
0
40
0
40
0
40
0
10
-499.30494699999997
20
-54.294700000000006
30
0
10
-497.83207199999998
20
-54.295243999999997
30
0
10
-496.61668899999995
20
-55.447331000000013
30
0
10
-496.53744700000004
20
-56.91807
30
0
0
SPLINE
5
133
100
AcDbEntity
8
0
100
AcDbSpline
70
0
71
3
72
8
73
4
74
0
42
0.000000001
43
0.0000000001
44
0.0000000001
40
-1
40
-1
40
-1
40
-1
40
0
40
0
40
0
40
0
10
-496.53744700000004
20
-56.91807
30
0
10
-473.21064299999995
20
-58.275389000000004
30
0
10
-454.98085900000007
20
-77.573125000000005
30
0
10
-454.95234699999997
20
-100.93934000000002
30
0
0
SPLINE
5
134
100
AcDbEntity
8
0
100
AcDbSpline
70
0
71
3
72
8
73
4
74
0
42
0.000000001
43
0.0000000001
44
0.0000000001
40
-1
40
-1
40
-1
40
-1
40
0
40
0
40
0
40
0
10
-426.53744700000004
20
-187.31833999999998
30
0
10
-403.21060399999999
20
-188.67560800000004
30
0
10
-384.98076200000008
20
-207.97335800000002
30
0
10
-384.952247
20
-231.33961000000002
30
0
0
LINE
5
135
100
AcDbEntity
8
0
100
AcDbLine
10
-384.952247
20
-231.33961000000005
30
0
11
-384.94774699999999
21
-231.33961000000002
31
0
0
SPLINE
5
136
100
AcDbEntity
8
0
100
AcDbSpline
70
0
71
3
72
8
73
4
74
0
42
0.000000001
43
0.0000000001
44
0.0000000001
40
-1
40
-1
40
-1
40
-1
40
0
40
0
40
0
40
0
10
-384.94774699999999
20
-231.33961000000002
30
0
10
-384.95621300000005
20
-254.720294
30
0
10
-403.19122800000002
20
-274.04035399999998
30
0
10
-426.53244700000005
20
-275.39873999999998
30
0
0
SPLINE
5
137
100
AcDbEntity
8
0
100
AcDbSpline
70
0
71
3
72
8
73
4
74
0
42
0.000000001
43
0.0000000001
44
0.0000000001
40
-1
40
-1
40
-1
40
-1
40
0
40
0
40
0
40
0
10
-426.53244700000005
20
-275.39873999999998
30
0
10
-426.53123300000004
20
-275.446099
30
0
10
-426.53123300000004
20
-275.49348100000003
30
0
10
-426.53244700000005
20
-275.54084
30
0
0
SPLINE
5
138
100
AcDbEntity
8
0
100
AcDbSpline
70
0
71
3
72
8
73
4
74
0
42
0.000000001
43
0.0000000001
44
0.0000000001
40
-1
40
-1
40
-1
40
-1
40
0
40
0
40
0
40
0
10
-426.53244700000005
20
-275.54084
30
0
10
-426.53263200000004
20
-277.072001
30
0
10
-427.77398400000004
20
-278.313129
30
0
10
-429.30514700000003
20
-278.31304
30
0
0
SPLINE
5
139
100
AcDbEntity
8
0
100
AcDbSpline
70
0
71
3
72
8
73
4
74
0
42
0.000000001
43
0.0000000001
44
0.0000000001
40
-1
40
-1
40
-1
40
-1
40
0
40
0
40
0
40
0
10
-429.30514700000003
20
-278.31304
30
0
10
-430.83611399999995
20
-278.31285299999996
30
0
10
-432.07716100000005
20
-277.07180600000004
30
0
10
-432.07734700000003
20
-275.54084
30
0
0
SPLINE
5
140
100
AcDbEntity
8
0
100
AcDbSpline
70
0
71
3
72
8
73
4
74
0
42
0.000000001
43
0.0000000001
44
0.0000000001
40
-1
40
-1
40
-1
40
-1
40
0
40
0
40
0
40
0
10
-432.07734700000003
20
-275.54084
30
0
10
-432.07641500000011
20
-275.47418100000004
30
0
10
-432.07307900000001
20
-275.407578
30
0
10
-432.06734699999998
20
-275.34116
30
0
0
SPLINE
5
141
100
AcDbEntity
8
0
100
AcDbSpline
70
0
71
3
72
8
73
4
74
0
42
0.000000001
43
0.0000000001
44
0.0000000001
40
-1
40
-1
40
-1
40
-1
40
0
40
0
40
0
40
0
10
-432.06734699999998
20
-275.34116
30
0
10
-455.228655
20
-273.78222400000004
30
0
10
-473.22665900000004
20
-254.55328300000002
30
0
10
-473.25214700000004
20
-231.33961000000002
30
0
0
SPLINE
5
142
100
AcDbEntity
8
0
100
AcDbSpline
70
0
71
3
72
8
73
4
74
0
42
0.000000001
43
0.0000000001
44
0.0000000001
40
-1
40
-1
40
-1
40
-1
40
0
40
0
40
0
40
0
10
-473.25214700000004
20
-231.33961000000002
30
0
10
-473.24935199999999
20
-208.10988500000005
30
0
10
-455.24610199999995
20
-188.855816
30
0
10
-432.06884699999995
20
-187.29499999999999
30
0
0
SPLINE
5
143
100
AcDbEntity
8
0
100
AcDbSpline
70
0
71
3
72
8
73
4
74
0
42
0.000000001
43
0.0000000001
44
0.0000000001
40
-1
40
-1
40
-1
40
-1
40
0
40
0
40
0
40
0
10
-432.06884699999995
20
-187.29499999999999
30
0
10
-431.97783600000008
20
-185.83483700000002
30
0
10
-430.76794400000011
20
-184.696665
30
0
10
-429.30494699999997
20
-184.69494
30
0
0
SPLINE
5
144
100
AcDbEntity
8
0
100
AcDbSpline
70
0
71
3
72
8
73
4
74
0
42
0.000000001
43
0.0000000001
44
0.0000000001
40
-1
40
-1
40
-1
40
-1
40
0
40
0
40
0
40
0
10
-429.30494699999997
20
-184.69494
30
0
10
-427.83206100000001
20
-184.69548500000002
30
0
10
-426.61667400000005
20
-185.847589
30
0
10
-426.53744700000004
20
-187.31833999999998
30
0
0
SPLINE
5
145
100
AcDbEntity
8
0
100
AcDbSpline
70
0
71
3
72
8
73
4
74
0
42
0.000000001
43
0.0000000001
44
0.0000000001
40
-1
40
-1
40
-1
40
-1
40
0
40
0
40
0
40
0
10
-149.304947
20
-184.69496000000004
30
0
10
-147.83207200000001
20
-184.69550300000003
30
0
10
-146.61668799999998
20
-185.84759000000003
30
0
10
-146.53744699999999
20
-187.31833
30
0
0
SPLINE
5
146
100
AcDbEntity
8
0
100
AcDbSpline
70
0
71
3
72
8
73
4
74
0
42
0.000000001
43
0.0000000001
44
0.0000000001
40
-1
40
-1
40
-1
40
-1
40
0
40
0
40
0
40
0
10
-146.53744699999999
20
-187.31833
30
0
10
-123.21064700000001
20
-188.675634
30
0
10
-104.98085800000001
20
-207.97336100000001
30
0
10
-104.952347
20
-231.33957000000004
30
0
0
LINE
5
147
100
AcDbEntity
8
0
100
AcDbLine
10
-104.952347
20
-231.33957000000004
30
0
11
-104.94774700000001
21
-231.33957000000004
31
0
0
SPLINE
5
148
100
AcDbEntity
8
0
100
AcDbSpline
70
0
71
3
72
8
73
4
74
0
42
0.000000001
43
0.0000000001
44
0.0000000001
40
-1
40
-1
40
-1
40
-1
40
0
40
0
40
0
40
0
10
-104.94774700000001
20
-231.33957000000004
30
0
10
-104.95621299999999
20
-254.720248
30
0
10
-123.19123200000001
20
-274.040299
30
0
10
-146.53244699999999
20
-275.39867000000004
30
0
0
SPLINE
5
149
100
AcDbEntity
8
0
100
AcDbSpline
70
0
71
3
72
8
73
4
74
0
42
0.000000001
43
0.0000000001
44
0.0000000001
40
-1
40
-1
40
-1
40
-1
40
0
40
0
40
0
40
0
10
-146.53244699999999
20
-275.39867000000004
30
0
10
-146.53123300000001
20
-275.44602599999996
30
0
10
-146.53123300000001
20
-275.493404
30
0
10
-146.53244699999999
20
-275.54076000000003
30
0
0
SPLINE
5
150
100
AcDbEntity
8
0
100
AcDbSpline
70
0
71
3
72
8
73
4
74
0
42
0.000000001
43
0.0000000001
44
0.0000000001
40
-1
40
-1
40
-1
40
-1
40
0
40
0
40
0
40
0
10
-146.53244699999999
20
-275.54076000000003
30
0
10
-146.53263100000001
20
-277.07192099999997
30
0
10
-147.77398300000002
20
-278.31304999999998
30
0
10
-149.30514700000001
20
-278.31296000000003
30
0
0
SPLINE
5
151
100
AcDbEntity
8
0
100
AcDbSpline
70
0
71
3
72
8
73
4
74
0
42
0.000000001
43
0.0000000001
44
0.0000000001
40
-1
40
-1
40
-1
40
-1
40
0
40
0
40
0
40
0
10
-149.30514700000001
20
-278.31296000000003
30
0
10
-150.83611399999998
20
-278.31277400000005
30
0
10
-152.07716200000002
20
-277.07172599999996
30
0
10
-152.077347
20
-275.54076000000003
30
0
0
SPLINE
5
152
100
AcDbEntity
8
0
100
AcDbSpline
70
0
71
3
72
8
73
4
74
0
42
0.000000001
43
0.0000000001
44
0.0000000001
40
-1
40
-1
40
-1
40
-1
40
0
40
0
40
0
40
0
10
-152.077347
20
-275.54076000000003
30
0
10
-152.076415
20
-275.474108
30
0
10
-152.07307900000001
20
-275.407511
30
0
10
-152.06734699999998
20
-275.34109999999998
30
0
0
SPLINE
5
153
100
AcDbEntity
8
0
100
AcDbSpline
70
0
71
3
72
8
73
4
74
0
42
0.000000001
43
0.0000000001
44
0.0000000001
40
-1
40
-1
40
-1
40
-1
40
0
40
0
40
0
40
0
10
-152.06734699999998
20
-275.34109999999998
30
0
10
-175.228655
20
-273.78217800000004
30
0
10
-193.22666400000003
20
-254.55324100000001
30
0
10
-193.25214700000004
20
-231.33957000000004
30
0
0
SPLINE
5
154
100
AcDbEntity
8
0
100
AcDbSpline
70
0
71
3
72
8
73
4
74
0
42
0.000000001
43
0.0000000001
44
0.0000000001
40
-1
40
-1
40
-1
40
-1
40
0
40
0
40
0
40
0
10
-193.25214700000004
20
-231.33957000000004
30
0
10
-193.24934600000003
20
-208.10985600000004
30
0
10
-175.246095
20
-188.85580200000004
30
0
10
-152.06884700000001
20
-187.29499999999999
30
0
0
SPLINE
5
155
100
AcDbEntity
8
0
100
AcDbSpline
70
0
71
3
72
8
73
4
74
0
42
0.000000001
43
0.0000000001
44
0.0000000001
40
-1
40
-1
40
-1
40
-1
40
0
40
0
40
0
40
0
10
-152.06884700000001
20
-187.29499999999999
30
0
10
-151.97782699999999
20
-185.834845
30
0
10
-150.76793700000002
20
-184.696684
30
0
10
-149.304947
20
-184.69496000000004
30
0
0
SPLINE
5
156
100
AcDbEntity
8
0
100
AcDbSpline
70
0
71
3
72
8
73
4
74
0
42
0.000000001
43
0.0000000001
44
0.0000000001
40
-1
40
-1
40
-1
40
-1
40
0
40
0
40
0
40
0
10
-286.53244700000005
20
-275.39873
30
0
10
-286.53123299999999
20
-275.44608900000003
30
0
10
-286.53123299999999
20
-275.493471
30
0
10
-286.53244700000005
20
-275.54082999999997
30
0
0
SPLINE
5
157
100
AcDbEntity
8
0
100
AcDbSpline
70
0
71
3
72
8
73
4
74
0
42
0.000000001
43
0.0000000001
44
0.0000000001
40
-1
40
-1
40
-1
40
-1
40
0
40
0
40
0
40
0
10
-286.53244700000005
20
-275.54082999999997
30
0
10
-286.53263199999998
20
-277.07199100000003
30
0
10
-287.77398399999998
20
-278.31311899999997
30
0
10
-289.30514700000003
20
-278.31302999999997
30
0
0
SPLINE
5
158
100
AcDbEntity
8
0
100
AcDbSpline
70
0
71
3
72
8
73
4
74
0
42
0.000000001
43
0.0000000001
44
0.0000000001
40
-1
40
-1
40
-1
40
-1
40
0
40
0
40
0
40
0
10
-289.30514700000003
20
-278.31302999999997
30
0
10
-290.83611400000001
20
-278.31284300000004
30
0
10
-292.07716099999999
20
-277.07179600000006
30
0
10
-292.07734700000003
20
-275.54082999999997
30
0
0
SPLINE
5
159
100
AcDbEntity
8
0
100
AcDbSpline
70
0
71
3
72
8
73
4
74
0
42
0.000000001
43
0.0000000001
44
0.0000000001
40
-1
40
-1
40
-1
40
-1
40
0
40
0
40
0
40
0
10
-292.07734700000003
20
-275.54082999999997
30
0
10
-292.076414
20
-275.47418100000004
30
0
10
-292.07307900000001
20
-275.40758799999998
30
0
10
-292.06734700000004
20
-275.34118000000001
30
0
0
SPLINE
5
160
100
AcDbEntity
8
0
100
AcDbSpline
70
0
71
3
72
8
73
4
74
0
42
0.000000001
43
0.0000000001
44
0.0000000001
40
-1
40
-1
40
-1
40
-1
40
0
40
0
40
0
40
0
10
-292.06734700000004
20
-275.34118000000001
30
0
10
-315.22866699999997
20
-273.78224299999999
30
0
10
-333.226675
20
-254.55328500000005
30
0
10
-333.25214700000004
20
-231.33960000000002
30
0
0
SPLINE
5
161
100
AcDbEntity
8
0
100
AcDbSpline
70
0
71
3
72
8
73
4
74
0
42
0.000000001
43
0.0000000001
44
0.0000000001
40
-1
40
-1
40
-1
40
-1
40
0
40
0
40
0
40
0
10
-333.25214700000004
20
-231.33960000000002
30
0
10
-333.24935199999999
20
-208.10987499999999
30
0
10
-315.24610200000001
20
-188.855806
30
0
10
-292.06884700000001
20
-187.29499000000001
30
0
0
SPLINE
5
162
100
AcDbEntity
8
0
100
AcDbSpline
70
0
71
3
72
8
73
4
74
0
42
0.000000001
43
0.0000000001
44
0.0000000001
40
-1
40
-1
40
-1
40
-1
40
0
40
0
40
0
40
0
10
-292.06884700000001
20
-187.29499000000001
30
0
10
-291.97782599999999
20
-185.834835
30
0
10
-290.76793599999996
20
-184.69667400000003
30
0
10
-289.30494700000003
20
-184.69495000000001
30
0
0
SPLINE
5
163
100
AcDbEntity
8
0
100
AcDbSpline
70
0
71
3
72
8
73
4
74
0
42
0.000000001
43
0.0000000001
44
0.0000000001
40
-1
40
-1
40
-1
40
-1
40
0
40
0
40
0
40
0
10
-289.30494700000003
20
-184.69495000000001
30
0
10
-287.83207200000004
20
-184.69549400000002
30
0
10
-286.61668900000001
20
-185.84758100000002
30
0
10
-286.53744700000004
20
-187.31832
30
0
0
SPLINE
5
164
100
AcDbEntity
8
0
100
AcDbSpline
70
0
71
3
72
8
73
4
74
0
42
0.000000001
43
0.0000000001
44
0.0000000001
40
-1
40
-1
40
-1
40
-1
40
0
40
0
40
0
40
0
10
-286.53744700000004
20
-187.31832
30
0
10
-263.2106
20
-188.67558799999998
30
0
10
-244.98075600000004
20
-207.973344
30
0
10
-244.95224700000006
20
-231.33960000000002
30
0
0
LINE
5
165
100
AcDbEntity
8
0
100
AcDbLine
10
-244.95224700000006
20
-231.33960000000002
30
0
11
-244.94774699999999
21
-231.33960000000002
31
0
0
SPLINE
5
166
100
AcDbEntity
8
0
100
AcDbSpline
70
0
71
3
72
8
73
4
74
0
42
0.000000001
43
0.0000000001
44
0.0000000001
40
-1
40
-1
40
-1
40
-1
40
0
40
0
40
0
40
0
10
-244.94774700000005
20
-231.33960000000002
30
0
10
-244.95621299999999
20
-254.72028399999999
30
0
10
-263.19122799999997
20
-274.040344
30
0
10
-286.53244700000005
20
-275.39873
30
0
0
SPLINE
5
167
100
AcDbEntity
8
0
100
AcDbSpline
70
0
71
3
72
8
73
4
74
0
42
0.000000001
43
0.0000000001
44
0.0000000001
40
-1
40
-1
40
-1
40
-1
40
0
40
0
40
0
40
0
10
-222.06734700000001
20
-144.94092000000001
30
0
10
-245.22865899999999
20
-143.381981
30
0
10
-263.22666299999997
20
-124.15303600000001
30
0
10
-263.25214700000004
20
-100.93935999999999
30
0
0
SPLINE
5
168
100
AcDbEntity
8
0
100
AcDbSpline
70
0
71
3
72
8
73
4
74
0
42
0.000000001
43
0.0000000001
44
0.0000000001
40
-1
40
-1
40
-1
40
-1
40
0
40
0
40
0
40
0
10
-263.25214700000004
20
-100.93935999999999
30
0
10
-263.24935099999999
20
-77.709637000000001
30
0
10
-245.24610200000001
20
-58.455568999999997
30
0
10
-222.06884700000003
20
-56.894750000000009
30
0
0
SPLINE
5
169
100
AcDbEntity
8
0
100
AcDbSpline
70
0
71
3
72
8
73
4
74
0
42
0.000000001
43
0.0000000001
44
0.0000000001
40
-1
40
-1
40
-1
40
-1
40
0
40
0
40
0
40
0
10
-222.06884700000003
20
-56.894750000000009
30
0
10
-221.97782599999996
20
-55.434595000000002
30
0
10
-220.76793600000002
20
-54.296435000000002
30
0
10
-219.30494700000003
20
-54.294709999999995
30
0
0
SPLINE
5
170
100
AcDbEntity
8
0
100
AcDbSpline
70
0
71
3
72
8
73
4
74
0
42
0.000000001
43
0.0000000001
44
0.0000000001
40
-1
40
-1
40
-1
40
-1
40
0
40
0
40
0
40
0
10
-219.30494700000003
20
-54.294709999999995
30
0
10
-217.83207200000004
20
-54.295254000000014
30
0
10
-216.61668900000001
20
-55.447341000000002
30
0
10
-216.53744700000004
20
-56.91808000000001
30
0
0
SPLINE
5
171
100
AcDbEntity
8
0
100
AcDbSpline
70
0
71
3
72
8
73
4
74
0
42
0.000000001
43
0.0000000001
44
0.0000000001
40
-1
40
-1
40
-1
40
-1
40
0
40
0
40
0
40
0
10
-216.53744700000004
20
-56.91808000000001
30
0
10
-193.21060000000003
20
-58.275351000000001
30
0
10
-174.98075700000001
20
-77.57310600000001
30
0
10
-174.952247
20
-100.93935999999999
30
0
0
LINE
5
172
100
AcDbEntity
8
0
100
AcDbLine
10
-174.952247
20
-100.93935999999999
30
0
11
-174.94774699999999
21
-100.93935999999999
31
0
0
SPLINE
5
173
100
AcDbEntity
8
0
100
AcDbSpline
70
0
71
3
72
8
73
4
74
0
42
0.000000001
43
0.0000000001
44
0.0000000001
40
-1
40
-1
40
-1
40
-1
40
0
40
0
40
0
40
0
10
-174.94774699999999
20
-100.93935999999999
30
0
10
-174.95621400000002
20
-124.32004300000001
30
0
10
-193.19122800000002
20
-143.64010099999999
30
0
10
-216.53244700000002
20
-144.99849
30
0
0
SPLINE
5
174
100
AcDbEntity
8
0
100
AcDbSpline
70
0
71
3
72
8
73
4
74
0
42
0.000000001
43
0.0000000001
44
0.0000000001
40
-1
40
-1
40
-1
40
-1
40
0
40
0
40
0
40
0
10
-216.53244700000002
20
-144.99849
30
0
10
-216.53123300000004
20
-145.04584599999998
30
0
10
-216.53123300000004
20
-145.09322399999999
30
0
10
-216.53244700000002
20
-145.14058
30
0
0
SPLINE
5
175
100
AcDbEntity
8
0
100
AcDbSpline
70
0
71
3
72
8
73
4
74
0
42
0.000000001
43
0.0000000001
44
0.0000000001
40
-1
40
-1
40
-1
40
-1
40
0
40
0
40
0
40
0
10
-216.53244700000002
20
-145.14058
30
0
10
-216.53263199999998
20
-146.671741
30
0
10
-217.77398399999998
20
-147.912869
30
0
10
-219.30514700000003
20
-147.91278
30
0
0
SPLINE
5
176
100
AcDbEntity
8
0
100
AcDbSpline
70
0
71
3
72
8
73
4
74
0
42
0.000000001
43
0.0000000001
44
0.0000000001
40
-1
40
-1
40
-1
40
-1
40
0
40
0
40
0
40
0
10
-219.30514700000003
20
-147.91278
30
0
10
-220.83611400000001
20
-147.91259199999999
30
0
10
-222.07716099999999
20
-146.67154600000001
30
0
10
-222.07734700000003
20
-145.14058
30
0
0
SPLINE
5
177
100
AcDbEntity
8
0
100
AcDbSpline
70
0
71
3
72
8
73
4
74
0
42
0.000000001
43
0.0000000001
44
0.0000000001
40
-1
40
-1
40
-1
40
-1
40
0
40
0
40
0
40
0
10
-222.07734700000003
20
-145.14058
30
0
10
-222.076415
20
-145.073928
30
0
10
-222.07307900000004
20
-145.00733099999999
30
0
10
-222.06734700000001
20
-144.94092000000001
30
0
0
SPLINE
5
178
100
AcDbEntity
8
0
100
AcDbSpline
70
0
71
3
72
8
73
4
74
0
42
0.000000001
43
0.0000000001
44
0.0000000001
40
-1
40
-1
40
-1
40
-1
40
0
40
0
40
0
40
0
10
-613.25214699999992
20
-231.33962000000002
30
0
10
-613.24935200000004
20
-208.10989500000002
30
0
10
-595.24610199999995
20
-188.85582600000004
30
0
10
-572.06884700000001
20
-187.29501000000002
30
0
0
SPLINE
5
179
100
AcDbEntity
8
0
100
AcDbSpline
70
0
71
3
72
8
73
4
74
0
42
0.000000001
43
0.0000000001
44
0.0000000001
40
-1
40
-1
40
-1
40
-1
40
0
40
0
40
0
40
0
10
-572.06884700000001
20
-187.29501000000002
30
0
10
-571.97783600000002
20
-185.834847
30
0
10
-570.76794400000017
20
-184.696675
30
0
10
-569.30494699999997
20
-184.69495000000001
30
0
0
SPLINE
5
180
100
AcDbEntity
8
0
100
AcDbSpline
70
0
71
3
72
8
73
4
74
0
42
0.000000001
43
0.0000000001
44
0.0000000001
40
-1
40
-1
40
-1
40
-1
40
0
40
0
40
0
40
0
10
-569.30494699999997
20
-184.69495000000001
30
0
10
-567.83207199999993
20
-184.69549400000002
30
0
10
-566.61668899999995
20
-185.84758100000002
30
0
10
-566.53744699999993
20
-187.31832
30
0
0
SPLINE
5
181
100
AcDbEntity
8
0
100
AcDbSpline
70
0
71
3
72
8
73
4
74
0
42
0.000000001
43
0.0000000001
44
0.0000000001
40
-1
40
-1
40
-1
40
-1
40
0
40
0
40
0
40
0
10
-566.53744699999993
20
-187.31832
30
0
10
-543.21059200000013
20
-188.67558900000003
30
0
10
-524.98074599999995
20
-207.97335700000002
30
0
10
-524.95224699999994
20
-231.33962000000002
30
0
0
LINE
5
182
100
AcDbEntity
8
0
100
AcDbLine
10
-524.95224699999994
20
-231.33962000000008
30
0
11
-524.94774699999994
21
-231.33962000000002
31
0
0
SPLINE
5
183
100
AcDbEntity
8
0
100
AcDbSpline
70
0
71
3
72
8
73
4
74
0
42
0.000000001
43
0.0000000001
44
0.0000000001
40
-1
40
-1
40
-1
40
-1
40
0
40
0
40
0
40
0
10
-524.94774699999994
20
-231.33962000000002
30
0
10
-524.95621299999993
20
-254.720304
30
0
10
-543.19122800000002
20
-274.04036400000001
30
0
10
-566.53244699999993
20
-275.39875000000001
30
0
0
SPLINE
5
184
100
AcDbEntity
8
0
100
AcDbSpline
70
0
71
3
72
8
73
4
74
0
42
0.000000001
43
0.0000000001
44
0.0000000001
40
-1
40
-1
40
-1
40
-1
40
0
40
0
40
0
40
0
10
-566.53244699999993
20
-275.39875000000001
30
0
10
-566.53123200000005
20
-275.44611200000008
30
0
10
-566.53123200000005
20
-275.49349800000005
30
0
10
-566.53244699999993
20
-275.54086000000001
30
0
0
SPLINE
5
185
100
AcDbEntity
8
0
100
AcDbSpline
70
0
71
3
72
8
73
4
74
0
42
0.000000001
43
0.0000000001
44
0.0000000001
40
-1
40
-1
40
-1
40
-1
40
0
40
0
40
0
40
0
10
-566.53244699999993
20
-275.54086000000001
30
0
10
-566.53264899999999
20
-277.07200899999998
30
0
10
-567.77399600000001
20
-278.31311899999997
30
0
10
-569.30514699999992
20
-278.31302999999997
30
0
0
SPLINE
5
186
100
AcDbEntity
8
0
100
AcDbSpline
70
0
71
3
72
8
73
4
74
0
42
0.000000001
43
0.0000000001
44
0.0000000001
40
-1
40
-1
40
-1
40
-1
40
0
40
0
40
0
40
0
10
-569.30514699999992
20
-278.31302999999997
30
0
10
-570.83610199999998
20
-278.31284300000004
30
0
10
-572.07714499999997
20
-277.07181400000002
30
0
10
-572.07734699999992
20
-275.54086000000001
30
0
0
SPLINE
5
187
100
AcDbEntity
8
0
100
AcDbSpline
70
0
71
3
72
8
73
4
74
0
42
0.000000001
43
0.0000000001
44
0.0000000001
40
-1
40
-1
40
-1
40
-1
40
0
40
0
40
0
40
0
10
-572.07734699999992
20
-275.54086000000001
30
0
10
-572.076415
20
-275.474198
30
0
10
-572.07308
20
-275.40759100000002
30
0
10
-572.06734699999993
20
-275.34117000000003
30
0
0
SPLINE
5
188
100
AcDbEntity
8
0
100
AcDbSpline
70
0
71
3
72
8
73
4
74
0
42
0.000000001
43
0.0000000001
44
0.0000000001
40
-1
40
-1
40
-1
40
-1
40
0
40
0
40
0
40
0
10
-572.06734699999993
20
-275.34117000000003
30
0
10
-595.228655
20
-273.78223399999996
30
0
10
-613.22665900000004
20
-254.55329300000002
30
0
10
-613.25214699999992
20
-231.33962000000002
30
0
0
SPLINE
5
189
100
AcDbEntity
8
0
100
AcDbSpline
70
0
71
3
72
8
73
4
74
0
42
0.000000001
43
0.0000000001
44
0.0000000001
40
-1
40
-1
40
-1
40
-1
40
0
40
0
40
0
40
0
10
-362.06884700000001
20
-56.894740000000006
30
0
10
-361.97782100000006
20
-55.43458900000001
30
0
10
-360.76793300000008
20
-54.296433999999998
30
0
10
-359.30494700000003
20
-54.294709999999995
30
0
0
SPLINE
5
190
100
AcDbEntity
8
0
100
AcDbSpline
70
0
71
3
72
8
73
4
74
0
42
0.000000001
43
0.0000000001
44
0.0000000001
40
-1
40
-1
40
-1
40
-1
40
0
40
0
40
0
40
0
10
-359.30494700000003
20
-54.294709999999995
30
0
10
-357.83207200000004
20
-54.295254000000014
30
0
10
-356.61668900000001
20
-55.447341000000002
30
0
10
-356.53744700000004
20
-56.91808000000001
30
0
0
SPLINE
5
191
100
AcDbEntity
8
0
100
AcDbSpline
70
0
71
3
72
8
73
4
74
0
42
0.000000001
43
0.0000000001
44
0.0000000001
40
-1
40
-1
40
-1
40
-1
40
0
40
0
40
0
40
0
10
-356.53744700000004
20
-56.91808000000001
30
0
10
-333.21060399999999
20
-58.275348000000008
30
0
10
-314.98076200000003
20
-77.573098000000002
30
0
10
-314.952247
20
-100.93935000000002
30
0
0
LINE
5
192
100
AcDbEntity
8
0
100
AcDbLine
10
-314.952247
20
-100.93935
30
0
11
-314.94774699999999
21
-100.93935000000002
31
0
0
SPLINE
5
193
100
AcDbEntity
8
0
100
AcDbSpline
70
0
71
3
72
8
73
4
74
0
42
0.000000001
43
0.0000000001
44
0.0000000001
40
-1
40
-1
40
-1
40
-1
40
0
40
0
40
0
40
0
10
-314.94774699999999
20
-100.93935000000002
30
0
10
-314.95620299999996
20
-124.320042
30
0
10
-333.19122000000004
20
-143.64011299999999
30
0
10
-356.5324470000001
20
-144.99850000000004
30
0
0
SPLINE
5
194
100
AcDbEntity
8
0
100
AcDbSpline
70
0
71
3
72
8
73
4
74
0
42
0.000000001
43
0.0000000001
44
0.0000000001
40
-1
40
-1
40
-1
40
-1
40
0
40
0
40
0
40
0
10
-356.5324470000001
20
-144.99850000000004
30
0
10
-356.53123299999999
20
-145.04585600000001
30
0
10
-356.53123299999999
20
-145.093234
30
0
10
-356.5324470000001
20
-145.14059
30
0
0
SPLINE
5
195
100
AcDbEntity
8
0
100
AcDbSpline
70
0
71
3
72
8
73
4
74
0
42
0.000000001
43
0.0000000001
44
0.0000000001
40
-1
40
-1
40
-1
40
-1
40
0
40
0
40
0
40
0
10
-356.5324470000001
20
-145.14059
30
0
10
-356.53263799999996
20
-146.67174700000001
30
0
10
-357.77398800000003
20
-147.912869
30
0
10
-359.30514700000003
20
-147.91278
30
0
0
SPLINE
5
196
100
AcDbEntity
8
0
100
AcDbSpline
70
0
71
3
72
8
73
4
74
0
42
0.000000001
43
0.0000000001
44
0.0000000001
40
-1
40
-1
40
-1
40
-1
40
0
40
0
40
0
40
0
10
-359.30514700000003
20
-147.91278
30
0
10
-360.83611000000008
20
-147.91259300000002
30
0
10
-362.077156
20
-146.67155199999999
30
0
10
-362.07734700000003
20
-145.14059
30
0
0
SPLINE
5
197
100
AcDbEntity
8
0
100
AcDbSpline
70
0
71
3
72
8
73
4
74
0
42
0.000000001
43
0.0000000001
44
0.0000000001
40
-1
40
-1
40
-1
40
-1
40
0
40
0
40
0
40
0
10
-362.07734700000003
20
-145.14059
30
0
10
-362.076415
20
-145.073938
30
0
10
-362.07307900000001
20
-145.007341
30
0
10
-362.06734700000004
20
-144.94093000000001
30
0
0
SPLINE
5
198
100
AcDbEntity
8
0
100
AcDbSpline
70
0
71
3
72
8
73
4
74
0
42
0.000000001
43
0.0000000001
44
0.0000000001
40
-1
40
-1
40
-1
40
-1
40
0
40
0
40
0
40
0
10
-362.06734700000004
20
-144.94093000000001
30
0
10
-385.22866700000003
20
-143.38199299999999
30
0
10
-403.226675
20
-124.153035
30
0
10
-403.25214700000004
20
-100.93935000000002
30
0
0
SPLINE
5
199
100
AcDbEntity
8
0
100
AcDbSpline
70
0
71
3
72
8
73
4
74
0
42
0.000000001
43
0.0000000001
44
0.0000000001
40
-1
40
-1
40
-1
40
-1
40
0
40
0
40
0
40
0
10
-403.25214700000004
20
-100.93935000000002
30
0
10
-403.24935199999999
20
-77.709625000000003
30
0
10
-385.24610200000006
20
-58.455556000000009
30
0
10
-362.06884700000001
20
-56.894740000000006
30
0
0
ENDSEC
0
SECTION
2
OBJECTS
0
DICTIONARY
5
C
100
AcDbDictionary
3
ACAD_GROUP
350
D
3
ACAD_MLINESTYLE
350
17
0
DICTIONARY
5
D
100
AcDbDictionary
0
DICTIONARY
5
1A
330
C
100
AcDbDictionary
0
DICTIONARY
5
17
100
AcDbDictionary
0
ENDSEC
0
EOF
