0
SECTION
2
HEADER
9
$INSUNITS
70
4
9
$ACADVER
1
AC1014
9
$HANDSEED
5
FFFF
0
ENDSEC
0
SECTION
2
TABLES
0
TABLE
2
VPORT
5
8
100
AcDbSymbolTable
0
ENDTAB
0
TABLE
2
LTYPE
5
5
100
AcDbSymbolTable
0
LTYPE
5
14
100
AcDbSymbolTableRecord
100
AcDbLinetypeTableRecord
2
BYBLOCK
70
0
0
LTYPE
5
15
100
AcDbSymbolTableRecord
100
AcDbLinetypeTableRecord
2
BYLAYER
70
0
0
ENDTAB
0
TABLE
2
LAYER
5
2
100
AcDbSymbolTable
70
2
0
LAYER
5
50
100
AcDbSymbolTableRecord
100
AcDbLayerTableRecord
2
0
70
0
6
CONTINUOUS
0
ENDTAB
0
TABLE
2
STYLE
5
3
100
AcDbSymbolTable
70
1
0
STYLE
5
11
100
AcDbSymbolTableRecord
100
AcDbTextStyleTableRecord
2
STANDARD
70
0
0
ENDTAB
0
TABLE
2
VIEW
5
6
100
AcDbSymbolTable
70
0
0
ENDTAB
0
TABLE
2
UCS
5
7
100
AcDbSymbolTable
70
0
0
ENDTAB
0
TABLE
2
APPID
5
9
100
AcDbSymbolTable
70
2
0
APPID
5
12
100
AcDbSymbolTableRecord
100
AcDbRegAppTableRecord
2
ACAD
70
0
0
ENDTAB
0
TABLE
2
DIMSTYLE
5
A
100
AcDbSymbolTable
70
1
0
ENDTAB
0
TABLE
2
BLOCK_RECORD
5
1
100
AcDbSymbolTable
70
1
0
BLOCK_RECORD
5
1F
100
AcDbSymbolTableRecord
100
AcDbBlockTableRecord
2
*MODEL_SPACE
0
BLOCK_RECORD
5
1B
100
AcDbSymbolTableRecord
100
AcDbBlockTableRecord
2
*PAPER_SPACE
0
ENDTAB
0
ENDSEC
0
SECTION
2
BLOCKS
0
BLOCK
5
20
100
AcDbEntity
100
AcDbBlockBegin
2
*MODEL_SPACE
0
ENDBLK
5
21
100
AcDbEntity
100
AcDbBlockEnd
0
BLOCK
5
1C
100
AcDbEntity
100
AcDbBlockBegin
2
*PAPER_SPACE
0
ENDBLK
5
1D
100
AcDbEntity
100
AcDbBlockEnd
0
ENDSEC
0
SECTION
2
ENTITIES
0
LWPOLYLINE
5
100
100
AcDbEntity
8
0
100
AcDbPolyline
90
64
70
1
43
0.0
10
-363.99999999999989
20
-57.000000000000014
10
-363.99999999999989
20
-63.000000000000007
10
-718
20
-63.000000000000007
10
-718
20
5.9999999999999964
10
-696.5
20
5.9999999999999964
10
-696.5
20
-4.4408920985006262e-15
10
-671.5
20
-4.4408920985006262e-15
10
-671.5
20
5.9999999999999964
10
-646.5
20
5.9999999999999964
10
-646.5
20
-4.4408920985006262e-15
10
-621.5
20
-4.4408920985006262e-15
10
-621.5
20
5.9999999999999964
10
-596.5
20
5.9999999999999964
10
-596.5
20
-4.4408920985006262e-15
10
-571.5
20
-4.4408920985006262e-15
10
-571.5
20
5.9999999999999964
10
-546.5
20
5.9999999999999964
10
-546.5
20
-4.4408920985006262e-15
10
-521.5
20
-4.4408920985006262e-15
10
-521.5
20
5.9999999999999964
10
-496.50000000000006
20
5.9999999999999964
10
-496.50000000000006
20
-4.4408920985006262e-15
10
-471.50000000000006
20
-4.4408920985006262e-15
10
-471.50000000000006
20
5.9999999999999964
10
-446.50000000000006
20
5.9999999999999964
10
-446.50000000000006
20
-4.4408920985006262e-15
10
-421.50000000000006
20
-4.4408920985006262e-15
10
-421.50000000000006
20
5.9999999999999964
10
-396.50000000000006
20
5.9999999999999964
10
-396.50000000000006
20
-4.4408920985006262e-15
10
-371.50000000000006
20
-4.4408920985006262e-15
10
-371.50000000000006
20
5.9999999999999964
10
-346.50000000000006
20
5.9999999999999964
10
-346.50000000000006
20
-4.4408920985006262e-15
10
-321.50000000000006
20
-4.4408920985006262e-15
10
-321.50000000000006
20
5.9999999999999964
10
-296.5
20
5.9999999999999964
10
-296.5
20
-4.4408920985006262e-15
10
-271.5
20
-4.4408920985006262e-15
10
-271.5
20
5.9999999999999964
10
-246.5
20
5.9999999999999964
10
-246.5
20
-4.4408920985006262e-15
10
-221.5
20
-4.4408920985006262e-15
10
-221.5
20
5.9999999999999964
10
-196.5
20
5.9999999999999964
10
-196.5
20
-4.4408920985006262e-15
10
-171.5
20
-4.4408920985006262e-15
10
-171.5
20
5.9999999999999964
10
-146.5
20
5.9999999999999964
10
-146.5
20
-4.4408920985006262e-15
10
-121.49999999999999
20
-4.4408920985006262e-15
10
-121.49999999999999
20
5.9999999999999964
10
-96.499999999999986
20
5.9999999999999964
10
-96.499999999999986
20
-4.4408920985006262e-15
10
-71.499999999999986
20
-4.4408920985006262e-15
10
-71.499999999999986
20
5.9999999999999964
10
-46.500000000000057
20
5.9999999999999964
10
-46.500000000000057
20
-4.4408920985006262e-15
10
-21.500000000000057
20
-4.4408920985006262e-15
10
-21.500000000000057
20
5.9999999999999964
10
0
20
5.9999999999999964
10
0
20
-63.000000000000007
10
-353.99999999999989
20
-63.000000000000007
10
-353.99999999999989
20
-57
42
0.99999999999999989
0
ENDSEC
0
SECTION
2
OBJECTS
0
DICTIONARY
5
C
100
AcDbDictionary
3
ACAD_GROUP
350
D
3
ACAD_MLINESTYLE
350
17
0
DICTIONARY
5
D
100
AcDbDictionary
0
DICTIONARY
5
1A
330
C
100
AcDbDictionary
0
DICTIONARY
5
17
100
AcDbDictionary
0
ENDSEC
0
EOF
