0
SECTION
2
HEADER
9
$INSUNITS
70
4
9
$ACADVER
1
AC1014
9
$HANDSEED
5
FFFF
0
ENDSEC
0
SECTION
2
TABLES
0
TABLE
2
VPORT
5
8
100
AcDbSymbolTable
0
ENDTAB
0
TABLE
2
LTYPE
5
5
100
AcDbSymbolTable
0
LTYPE
5
14
100
AcDbSymbolTableRecord
100
AcDbLinetypeTableRecord
2
BYBLOCK
70
0
0
LTYPE
5
15
100
AcDbSymbolTableRecord
100
AcDbLinetypeTableRecord
2
BYLAYER
70
0
0
ENDTAB
0
TABLE
2
LAYER
5
2
100
AcDbSymbolTable
70
2
0
LAYER
5
50
100
AcDbSymbolTableRecord
100
AcDbLayerTableRecord
2
0
70
0
6
CONTINUOUS
0
ENDTAB
0
TABLE
2
STYLE
5
3
100
AcDbSymbolTable
70
1
0
STYLE
5
11
100
AcDbSymbolTableRecord
100
AcDbTextStyleTableRecord
2
STANDARD
70
0
0
ENDTAB
0
TABLE
2
VIEW
5
6
100
AcDbSymbolTable
70
0
0
ENDTAB
0
TABLE
2
UCS
5
7
100
AcDbSymbolTable
70
0
0
ENDTAB
0
TABLE
2
APPID
5
9
100
AcDbSymbolTable
70
2
0
APPID
5
12
100
AcDbSymbolTableRecord
100
AcDbRegAppTableRecord
2
ACAD
70
0
0
ENDTAB
0
TABLE
2
DIMSTYLE
5
A
100
AcDbSymbolTable
70
1
0
ENDTAB
0
TABLE
2
BLOCK_RECORD
5
1
100
AcDbSymbolTable
70
1
0
BLOCK_RECORD
5
1F
100
AcDbSymbolTableRecord
100
AcDbBlockTableRecord
2
*MODEL_SPACE
0
BLOCK_RECORD
5
1B
100
AcDbSymbolTableRecord
100
AcDbBlockTableRecord
2
*PAPER_SPACE
0
ENDTAB
0
ENDSEC
0
SECTION
2
BLOCKS
0
BLOCK
5
20
100
AcDbEntity
100
AcDbBlockBegin
2
*MODEL_SPACE
0
ENDBLK
5
21
100
AcDbEntity
100
AcDbBlockEnd
0
BLOCK
5
1C
100
AcDbEntity
100
AcDbBlockBegin
2
*PAPER_SPACE
0
ENDBLK
5
1D
100
AcDbEntity
100
AcDbBlockEnd
0
ENDSEC
0
SECTION
2
ENTITIES
0
LWPOLYLINE
5
100
100
AcDbEntity
8
0
100
AcDbPolyline
90
164
70
1
43
0.0
10
-6.0000000000000009
20
-319
10
-11.5
20
-319
10
-11.499999999999986
20
-325
10
-26.499999999999986
20
-325
10
-26.5
20
-319
10
-41.5
20
-319
10
-41.499999999999986
20
-325
10
-56.499999999999986
20
-325
10
-56.5
20
-319
10
-71.5
20
-319
10
-71.499999999999986
20
-325
10
-86.499999999999986
20
-325
10
-86.5
20
-319
10
-101.5
20
-319
10
-101.49999999999999
20
-325
10
-116.49999999999999
20
-325
10
-116.5
20
-319
10
-131.5
20
-319
10
-131.5
20
-325
10
-146.5
20
-325
10
-146.5
20
-319
10
-161.5
20
-319
10
-161.5
20
-325
10
-176.5
20
-325
10
-176.5
20
-319
10
-191.5
20
-319
10
-191.5
20
-325
10
-206.5
20
-325
10
-206.5
20
-319
10
-221.5
20
-319
10
-221.5
20
-325
10
-236.5
20
-325
10
-236.5
20
-319
10
-251.5
20
-319
10
-251.5
20
-325
10
-266.5
20
-325
10
-266.5
20
-319
10
-281.5
20
-319
10
-281.5
20
-325
10
-296.5
20
-325
10
-296.5
20
-319
10
-311.5
20
-319
10
-311.5
20
-325
10
-326.5
20
-325
10
-326.5
20
-319
10
-341.5
20
-319
10
-341.5
20
-325
10
-356.5
20
-325
10
-356.5
20
-319
10
-371.5
20
-319
10
-371.5
20
-325
10
-386.5
20
-325
10
-386.5
20
-319
10
-401.5
20
-319
10
-401.5
20
-325
10
-416.5
20
-325
10
-416.5
20
-319
10
-424.80000000000007
20
-319
10
-424.80000000000007
20
-310
10
-430.80000000000007
20
-310
10
-430.80000000000007
20
-295
10
-424.80000000000007
20
-295
10
-424.80000000000007
20
-280
10
-430.80000000000007
20
-280
10
-430.80000000000007
20
-265
10
-424.80000000000007
20
-265
10
-424.80000000000007
20
-250
10
-430.80000000000007
20
-250
10
-430.80000000000007
20
-235
10
-424.80000000000007
20
-235
10
-424.80000000000007
20
-220
10
-430.80000000000007
20
-220
10
-430.80000000000007
20
-205
10
-424.80000000000007
20
-205
10
-424.80000000000007
20
-190
10
-430.80000000000007
20
-190
10
-430.80000000000007
20
-175
10
-424.80000000000007
20
-175
10
-424.80000000000007
20
-160
10
-430.80000000000007
20
-160
10
-430.80000000000007
20
-145
10
-424.80000000000007
20
-145
10
-424.80000000000007
20
-136
10
-416.5
20
-136
10
-416.5
20
-130
10
-401.5
20
-130
10
-401.5
20
-136
10
-386.5
20
-136
10
-386.5
20
-130
10
-371.5
20
-130
10
-371.5
20
-136
10
-356.5
20
-136
10
-356.5
20
-130
10
-341.5
20
-130
10
-341.5
20
-136
10
-326.5
20
-136
10
-326.5
20
-130
10
-311.5
20
-130
10
-311.5
20
-136
10
-296.5
20
-136
10
-296.5
20
-130
10
-281.5
20
-130
10
-281.5
20
-136
10
-266.5
20
-136
10
-266.5
20
-130
10
-251.5
20
-130
10
-251.5
20
-136
10
-236.5
20
-136
10
-236.5
20
-130
10
-221.5
20
-130
10
-221.5
20
-136
10
-206.5
20
-136
10
-206.5
20
-130
10
-191.5
20
-130
10
-191.5
20
-136
10
-176.5
20
-136
10
-176.5
20
-130
10
-161.5
20
-130
10
-161.5
20
-136
10
-146.5
20
-136
10
-146.5
20
-130
10
-131.5
20
-130
10
-131.5
20
-136
10
-116.49999999999999
20
-136
10
-116.5
20
-130
10
-101.5
20
-130
10
-101.49999999999999
20
-136
10
-86.499999999999986
20
-136
10
-86.5
20
-130
10
-71.5
20
-130
10
-71.499999999999986
20
-136
10
-56.499999999999986
20
-136
10
-56.5
20
-130
10
-41.5
20
-130
10
-41.499999999999986
20
-136
10
-26.499999999999986
20
-136
10
-26.5
20
-130
10
-11.5
20
-130
10
-11.499999999999986
20
-136
10
-6.0000000000000009
20
-136
10
-6.0000000000000009
20
-145
10
0
20
-145
10
0
20
-160
10
-6.0000000000000009
20
-160
10
-6.0000000000000009
20
-175
10
0
20
-175
10
0
20
-190
10
-6.0000000000000009
20
-190
10
-6.0000000000000009
20
-205
10
0
20
-205
10
0
20
-220
10
-6.0000000000000009
20
-220
10
-6.0000000000000009
20
-235
10
0
20
-235
10
0
20
-250
10
-6.0000000000000009
20
-250
10
-6.0000000000000009
20
-265
10
0
20
-265
10
0
20
-280
10
-6.0000000000000009
20
-280
10
-6.0000000000000009
20
-295
10
0
20
-295
10
0
20
-310
10
-6.0000000000000009
20
-310
0
LWPOLYLINE
5
101
100
AcDbEntity
8
0
100
AcDbPolyline
90
4
70
1
43
0.0
10
-381.71209313012378
20
-220.03175038753386
42
-1.0300935328079222
10
-385.21055526987618
20
-220.03175038753395
42
-0.94240016077410105
10
-385.21055526987618
20
-161.0954936124661
42
-1.0300935328078999
10
-381.71209313012378
20
-161.09549361246619
42
-0.94240016077410194
0
LWPOLYLINE
5
102
100
AcDbEntity
8
0
100
AcDbPolyline
90
4
70
1
43
0.0
10
-297.71209313012383
20
-220.03175038753392
42
-1.0300935328079113
10
-301.21055526987612
20
-220.03175038753395
42
-0.94240016077410382
10
-301.21055526987618
20
-161.0954936124661
42
-1.0300935328079113
10
-297.71209313012389
20
-161.09549361246616
42
-0.94240016077410382
0
LWPOLYLINE
5
103
100
AcDbEntity
8
0
100
AcDbPolyline
90
4
70
1
43
0.0
10
-129.71209313012383
20
-220.03175038753386
42
-1.0300935328078922
10
-133.21055526987627
20
-220.03175038753392
42
-0.94240016077410105
10
-133.21055526987624
20
-161.09549361246616
42
-1.0300935328079113
10
-129.71209313012383
20
-161.09549361246619
42
-0.94240016077410194
0
LWPOLYLINE
5
104
100
AcDbEntity
8
0
100
AcDbPolyline
90
4
70
1
43
0.0
10
-87.712093130123833
20
-298.27175038753393
42
-1.0300935328079008
10
-91.210555269876195
20
-298.27175038753381
42
-0.94240016077410194
10
-91.21055526987621
20
-239.33549361246611
42
-1.0300935328079008
10
-87.712093130123847
20
-239.33549361246602
42
-0.94240016077410271
0
LWPOLYLINE
5
105
100
AcDbEntity
8
0
100
AcDbPolyline
90
4
70
1
43
0.0
10
-213.71209313012383
20
-220.03175038753392
42
-1.0300935328079113
10
-217.21055526987615
20
-220.03175038753386
42
-0.94240016077410382
10
-217.21055526987615
20
-161.0954936124661
42
-1.0300935328079113
10
-213.71209313012383
20
-161.09549361246604
42
-0.94240016077410194
0
LWPOLYLINE
5
106
100
AcDbEntity
8
0
100
AcDbPolyline
90
4
70
1
43
0.0
10
-45.712093130123833
20
-220.03175038753386
42
-1.0300935328079113
10
-49.210555269876231
20
-220.03175038753392
42
-0.94240016077410194
10
-49.210555269876181
20
-161.0954936124661
42
-1.0300935328079008
10
-45.712093130123904
20
-161.0954936124661
42
-0.94240016077410382
0
LWPOLYLINE
5
107
100
AcDbEntity
8
0
100
AcDbPolyline
90
4
70
1
43
0.0
10
-175.21055526987618
20
-239.33549361246619
42
-1.0300935328079326
10
-171.7120931301238
20
-239.33549361246611
42
-0.94240016077410016
10
-171.71209313012372
20
-298.27175038753387
42
-1.0300935328079017
10
-175.21055526987621
20
-298.27175038753381
42
-0.94240016077410416
0
LWPOLYLINE
5
108
100
AcDbEntity
8
0
100
AcDbPolyline
90
4
70
1
43
0.0
10
-343.21055526987607
20
-239.33549361246611
42
-1.0300935328079548
10
-339.71209313012389
20
-239.33549361246619
42
-0.94240016077410382
10
-339.71209313012378
20
-298.27175038753387
42
-1.0300935328079548
10
-343.21055526987607
20
-298.27175038753398
42
-0.94240016077410382
0
LWPOLYLINE
5
109
100
AcDbEntity
8
0
100
AcDbPolyline
90
4
70
1
43
0.0
10
-259.21055526987618
20
-239.33549361246611
42
-1.0300935328079113
10
-255.71209313012392
20
-239.33549361246611
42
-0.94240016077410382
10
-255.71209313012386
20
-298.27175038753387
42
-1.0300935328079008
10
-259.21055526987612
20
-298.27175038753387
42
-0.94240016077410382
0
ENDSEC
0
SECTION
2
OBJECTS
0
DICTIONARY
5
C
100
AcDbDictionary
3
ACAD_GROUP
350
D
3
ACAD_MLINESTYLE
350
17
0
DICTIONARY
5
D
100
AcDbDictionary
0
DICTIONARY
5
1A
330
C
100
AcDbDictionary
0
DICTIONARY
5
17
100
AcDbDictionary
0
ENDSEC
0
EOF
